<svg id="eOQvuf6DJd11" xmlns="http://www.w3.org/2000/svg" xmlns:xlink="http://www.w3.org/1999/xlink" viewBox="0 0 300 300" shape-rendering="geometricPrecision" text-rendering="geometricPrecision" project-id="3bc2ba10620e448a89c4662d1cfc5ab2" export-id="bb93b588a0af48929d4299e4042b9081" cached="false"><defs><linearGradient id="eOQvuf6DJd12-fill" x1="0.5" y1="0" x2="0.5" y2="1" spreadMethod="pad" gradientUnits="objectBoundingBox" gradientTransform="translate(0 0)"><stop id="eOQvuf6DJd12-fill-0" offset="0%" stop-color="#b13a7e"/><stop id="eOQvuf6DJd12-fill-1" offset="100%" stop-color="#e2692b"/></linearGradient></defs><circle r="27.137679" transform="matrix(4.632964 0 0 4.798332 148.32138 148.261464)" fill="url(#eOQvuf6DJd12-fill)"/><g transform="matrix(7.962146 0 0 8.320103 54.454248 50.158764)"><path d="M6,6L8,4M8,4L6,2M8,4h-2C3.79086,4,2,5.79086,2,8M18,18l-2,2m0,0l2,2m-2-2h2c2.2091,0,4-1.7909,4-4M10.189,6.5C10.8551,3.91216,13.2042,2,16,2c3.3137,0,6,2.68629,6,6c0,2.7957-1.9121,5.1449-4.4999,5.811M14,16c0,3.3137-2.6863,6-6,6s-6-2.6863-6-6s2.68629-6,6-6s6,2.6863,6,6Z" fill="none" stroke="#fff" stroke-width="2" stroke-linecap="round" stroke-linejoin="round"/></g></svg>
