<svg id="epyJMklz4tG1" xmlns="http://www.w3.org/2000/svg" xmlns:xlink="http://www.w3.org/1999/xlink" viewBox="0 0 300 300" shape-rendering="geometricPrecision" text-rendering="geometricPrecision" project-id="3bc2ba10620e448a89c4662d1cfc5ab2" export-id="7da21d1943474344976e4d1fabc29a0b" cached="false"><defs><linearGradient id="epyJMklz4tG2-fill" x1="0.5" y1="0" x2="0.5" y2="1" spreadMethod="pad" gradientUnits="objectBoundingBox" gradientTransform="translate(0 0)"><stop id="epyJMklz4tG2-fill-0" offset="0%" stop-color="#b13a7e"/><stop id="epyJMklz4tG2-fill-1" offset="100%" stop-color="#e2692b"/></linearGradient><linearGradient id="epyJMklz4tG4-stroke" x1="0.5" y1="0" x2="0.5" y2="1" spreadMethod="pad" gradientUnits="objectBoundingBox" gradientTransform="translate(0 0)"><stop id="epyJMklz4tG4-stroke-0" offset="0%" stop-color="#b13a7e"/><stop id="epyJMklz4tG4-stroke-1" offset="100%" stop-color="#e2692b"/></linearGradient><linearGradient id="epyJMklz4tG5-stroke" x1="0" y1="0.5" x2="1" y2="0.5" spreadMethod="pad" gradientUnits="objectBoundingBox" gradientTransform="translate(0 0)"><stop id="epyJMklz4tG5-stroke-0" offset="0%" stop-color="#b13a7e"/><stop id="epyJMklz4tG5-stroke-1" offset="100%" stop-color="#d96139"/></linearGradient></defs><path d="M56.54,61.3c.079774-1.530803-.444485-3.031762-1.46-4.18-1.418746-1.301701-3.104709-2.277785-4.94-2.86-2.047646-.756088-4.050851-1.627482-6-2.61-1.578612-.794196-3.039239-1.803846-4.34-3-1.206329-1.124123-2.166531-2.486111-2.82-4-.708174-1.713506-1.04885-3.556563-1-5.41-.116332-3.303852,1.135476-6.509349,3.46-8.86c2.492297-2.374555,5.743936-3.791391,9.18-4v-6.82h5.12v6.94c3.457884.360261,6.639457,2.053274,8.87,4.72c2.228767,2.904717,3.361872,6.502326,3.2,10.16h-9.27q0-3.84-1.58-5.74c-1.039954-1.259558-2.607784-1.962123-4.24-1.9-1.505208-.093457-2.980918.446791-4.07,1.49-1.007968,1.123692-1.526242,2.602935-1.44,4.11-.066699,1.435683.440618,2.838901,1.41,3.9c1.530006,1.33291,3.306996,2.352216,5.23,3c2.152482.840697,4.252881,1.809085,6.29,2.9c1.52584.819926,2.926669,1.85371,4.16,3.07c1.113541,1.119123,1.993883,2.448134,2.59,3.91.62413,1.626326.926395,3.358406.89,5.1.133677,3.284496-1.092679,6.478809-3.39,8.83-2.547581,2.387895-5.85378,3.803826-9.34,4v6.37h-5.05v-6.32q-6.56-.71-10.16-4.66t-3.6-10.51h9.25c-.14094,2.103671.504056,4.184764,1.81,5.84c1.353213,1.401441,3.256443,2.133452,5.2,2c1.619036.088751,3.210836-.444234,4.45-1.49c1.08083-1.034166,1.660747-2.485782,1.59-3.98Z" transform="matrix(2.187722 0 0 1.862334 40.542561 56.901923)" fill="url(#epyJMklz4tG2-fill)"/><g transform="matrix(-0.287215 -0.639432 0.645113 -0.289766 180.688151 138.421612)"><polygon points="37.2,20.97 36.78,84.03 55,64.67 81.56,65.78 37.2,20.97" fill="none" stroke="url(#epyJMklz4tG4-stroke)" stroke-width="6" stroke-linecap="round" stroke-linejoin="round"/><line x1="37.2" y1="20.97" x2="55" y2="64.67" fill="none" stroke="url(#epyJMklz4tG5-stroke)" stroke-width="6" stroke-linecap="round" stroke-linejoin="round"/></g></svg>
